<svg width="26" height="28" viewBox="0 0 26 28" fill="none" xmlns="http://www.w3.org/2000/svg">
<g clip-path="url(#clip0_616_2)">
<path d="M15.9009 16.0376C15.9013 14.1265 15.9017 12.2156 15.9027 10.3047C17.2772 11.6032 18.6583 12.9024 20.0551 14.1873C21.2338 15.2726 22.9972 15.3442 24.1503 14.2494C24.7278 13.7017 25.0321 12.9764 24.9973 12.2122C24.963 11.4579 24.6043 10.7576 24.0317 10.2122C23.5842 9.78642 23.1297 9.36223 22.6797 8.94231C22.4813 8.75719 22.2838 8.57282 22.0879 8.38935C21.437 7.77955 20.786 7.16943 20.135 6.55922C18.5069 5.03324 16.8781 3.50664 15.247 1.98269C14.7749 1.54096 14.2383 1.20952 13.6322 1.07057C13.0134 0.928725 12.4016 1.006 11.8258 1.25484C11.3135 1.47579 10.9366 1.82758 10.686 2.06152L10.6782 2.06871L10.6771 2.06978C7.83182 4.73334 4.98704 7.39741 2.14533 10.0642C1.94777 10.2493 1.73489 10.4673 1.54511 10.7167C0.818823 11.6713 0.826925 12.9309 1.51784 13.882C2.61422 15.3918 4.66174 15.3765 5.99463 14.1204C6.53435 13.6119 7.09264 13.1017 7.65761 12.5854C8.46577 11.8468 9.28759 11.0957 10.0882 10.3195V23.8235C10.0881 24.1034 10.0879 24.5316 10.2232 24.9713C10.6284 26.2892 11.8705 27.0796 13.2285 26.9935C14.5539 26.9086 15.6244 25.9436 15.8277 24.6136C15.8786 24.2789 15.8979 23.9466 15.8979 23.628C15.8999 21.0979 15.9004 18.5674 15.9009 16.0376Z" stroke="white" stroke-width="2"/>
</g>
<defs>
<clipPath id="clip0_616_2">
<rect width="26" height="28" fill="white"/>
</clipPath>
</defs>
</svg>
