<svg width="800" height="800" viewBox="0 0 800 800" fill="none" xmlns="http://www.w3.org/2000/svg">
<path d="M702.282 128.445H97.7183C43.8388 128.445 0 172.284 0 226.164V573.835C0 627.715 43.8388 671.554 97.7183 671.554H702.282C756.161 671.554 800 627.715 800 573.835V226.174C800.011 172.284 756.172 128.445 702.282 128.445ZM654.533 192.195L400 356.182L145.467 192.195H654.533ZM702.282 607.814H97.7183C78.9864 607.814 63.7501 592.567 63.7501 573.846V227.98L380.333 431.556C380.758 431.821 381.215 432.002 381.651 432.246C382.107 432.501 382.575 432.746 383.042 432.98C385.497 434.244 388.026 435.264 390.607 435.933C390.873 436.008 391.139 436.04 391.404 436.103C394.241 436.773 397.11 437.187 399.979 437.187H400C400.021 437.187 400.042 437.187 400.042 437.187C402.911 437.187 405.78 436.783 408.617 436.103C408.883 436.04 409.148 436.008 409.414 435.933C411.996 435.264 414.514 434.244 416.979 432.98C417.446 432.746 417.914 432.501 418.371 432.246C418.806 432.002 419.263 431.821 419.688 431.556L736.271 227.98V573.835C736.26 592.567 721.014 607.814 702.282 607.814Z" fill="white"/>
</svg>
