<svg width="800" height="800" viewBox="0 0 800 800" fill="none" xmlns="http://www.w3.org/2000/svg">
<g clip-path="url(#clip0_624_2)">
<path d="M591.958 459.692C590.4 458.944 532.078 430.224 521.714 426.494C517.483 424.975 512.951 423.492 508.13 423.492C500.255 423.492 493.639 427.417 488.486 435.126C482.66 443.785 465.023 464.401 459.574 470.559C458.862 471.372 457.891 472.344 457.309 472.344C456.787 472.344 447.761 468.627 445.029 467.44C382.465 440.263 334.977 374.91 328.465 363.889C327.535 362.305 327.496 361.585 327.488 361.585C327.717 360.746 329.821 358.637 330.906 357.549C334.083 354.406 337.525 350.263 340.855 346.256C342.431 344.357 344.01 342.456 345.561 340.663C350.392 335.043 352.543 330.679 355.036 325.624L356.343 322.998C362.431 310.902 357.231 300.694 355.551 297.398C354.171 294.64 329.545 235.206 326.927 228.962C320.631 213.894 312.312 206.879 300.751 206.879C299.678 206.879 300.751 206.879 296.252 207.069C290.774 207.3 260.943 211.227 247.753 219.541C233.766 228.359 210.104 256.469 210.104 305.902C210.104 350.393 238.338 392.401 250.46 408.378C250.761 408.78 251.314 409.598 252.117 410.772C298.54 478.57 356.413 528.814 415.081 552.25C471.561 574.811 498.306 577.419 513.512 577.419H513.514C519.904 577.419 525.018 576.918 529.53 576.474L532.392 576.201C551.904 574.471 594.782 552.253 604.535 525.149C612.218 503.801 614.244 480.476 609.132 472.011C605.631 466.256 599.597 463.359 591.958 459.692Z" fill="white"/>
<path d="M407.101 0C190.436 0 14.1656 174.945 14.1656 389.982C14.1656 459.532 32.7786 527.613 68.0384 587.197L0.550046 786.275C-0.707097 789.987 0.227968 794.091 2.97342 796.886C4.95524 798.909 7.64355 800 10.389 800C11.441 800 12.5007 799.842 13.5345 799.512L221.119 733.548C277.924 763.899 342.127 779.92 407.103 779.92C623.747 779.922 799.999 604.995 799.999 389.982C799.999 174.945 623.747 0 407.101 0ZM407.101 698.686C345.96 698.686 286.742 681.031 235.838 647.629C234.127 646.504 232.14 645.927 230.14 645.927C229.083 645.927 228.023 646.088 226.992 646.416L123.005 679.47L156.573 580.434C157.659 577.229 157.116 573.694 155.116 570.961C116.353 517.995 95.8617 455.416 95.8617 389.982C95.8617 219.74 235.483 81.2364 407.098 81.2364C578.693 81.2364 718.298 219.74 718.298 389.982C718.301 560.203 578.698 698.686 407.101 698.686Z" fill="white"/>
</g>
<defs>
<clipPath id="clip0_624_2">
<rect width="800" height="800" fill="white"/>
</clipPath>
</defs>
</svg>
